# Blender v2.81 (sub 16) OBJ File: ''
# www.blender.org
mtllib ground.mtl
o ground.005
v -4.579052 0.999995 21.799015
v -4.579052 0.000002 -5.766509
v -4.579052 -0.000005 21.799015
v -4.579052 1.000002 -5.766509
v 4.397672 0.000002 -5.766509
v 4.397672 1.000002 -5.766509
v 4.397672 -0.000005 21.799015
v 4.397672 0.999995 21.799015
v 5.601245 0.000002 -5.766509
v 5.601245 1.000002 -5.766509
v 5.601245 -0.000005 21.799015
v 5.601245 0.999995 21.799015
v 4.397672 16.118345 -5.766509
v 4.397672 16.118340 21.799015
v 5.601245 16.118345 -5.766509
v 5.601245 16.118340 21.799015
vt 0.949883 0.545455
vt 1.000000 0.000000
vt 1.000000 0.545455
vt 0.000000 1.000000
vt 0.050117 0.545455
vt 0.050117 1.000000
vt 0.449883 0.545455
vt 0.449883 0.000000
vt 0.449883 0.000000
vt 0.100233 0.545455
vt 0.050117 1.000000
vt 0.050117 0.545455
vt 0.899766 0.000000
vt 0.899766 0.545455
vt 0.000000 0.545455
vt 0.449883 0.000000
vt 0.449883 0.545455
vt 0.949883 0.000000
vt 0.000000 0.545455
vt 0.100233 0.545455
vt 0.100233 1.000000
vt 0.000000 0.000000
vt 0.949883 0.000000
vt 0.899766 0.545455
vt 0.899767 0.000000
vt 0.949883 0.545455
vt 0.050117 0.545455
vt 0.000000 0.545455
vt 0.000000 0.545455
vt 0.449883 0.000000
vt 0.449883 0.545455
vt 0.449883 0.545455
vt 0.100233 0.545455
vt 0.949883 0.545455
vt 0.449883 0.545455
vt 0.050117 0.545455
vt 0.000000 0.545455
vt 0.449883 0.000000
vt 0.100233 0.545455
vt 0.949883 0.000000
vn -1.0000 0.0000 0.0000
vn 0.0000 0.0000 -1.0000
vn 0.0000 -0.7071 -0.7071
vn 0.0000 -0.7071 0.7071
vn 0.0000 0.0000 1.0000
vn 0.0000 -1.0000 -0.0000
vn 0.0000 1.0000 0.0000
vn 0.4472 0.0000 0.8944
vn -0.4472 0.0000 0.8944
vn 1.0000 0.0000 0.0000
vn -0.4472 0.0000 -0.8944
vn 0.5774 0.5774 -0.5773
vn 0.4472 0.0000 -0.8944
vn -0.5774 0.5774 0.5774
vn -0.5774 0.5774 -0.5774
vn 0.5774 0.5774 0.5774
usemtl Default_OBJ
s 1
f 1/1/1 2/2/1 3/3/1
f 4/4/2 5/5/2 2/6/2
f 5/7/3 11/8/4 7/9/4
f 8/10/5 3/11/5 7/12/5
f 5/7/6 3/13/6 2/14/6
f 4/15/7 8/16/7 6/17/7
f 1/1/1 4/18/1 2/2/1
f 4/4/2 6/19/2 5/5/2
f 7/12/4 12/20/8 8/10/9
f 8/10/5 1/21/5 3/11/5
f 5/7/6 7/9/6 3/13/6
f 4/15/7 1/22/7 8/16/7
f 10/23/10 11/24/10 9/25/10
f 10/23/10 12/26/10 11/24/10
f 6/19/11 9/27/3 5/5/3
f 6/19/11 15/28/12 10/29/13
f 14/30/14 15/31/12 13/32/15
f 12/20/8 14/33/14 8/10/9
f 6/17/11 14/30/14 13/32/15
f 10/23/13 16/34/16 12/26/8
f 5/7/3 9/35/3 11/8/4
f 7/12/4 11/36/4 12/20/8
f 6/19/11 10/29/13 9/27/3
f 6/19/11 13/37/15 15/28/12
f 14/30/14 16/38/16 15/31/12
f 12/20/8 16/39/16 14/33/14
f 6/17/11 8/16/9 14/30/14
f 10/23/13 15/40/12 16/34/16
