# Blender v2.80 (sub 75) OBJ File: ''
# www.blender.org
o Plane.005
v 3.397673 5.963708 2.198123
v 3.397673 0.963709 2.198120
v 3.397673 0.963711 -2.187915
v 3.397673 5.963711 -2.187912
v 1.602328 5.963708 3.993468
v 1.602328 0.963708 3.993465
v -1.783708 5.963708 3.993468
v -1.783708 0.963708 3.993465
v 1.602328 0.963712 -3.983260
v 1.602328 5.963711 -3.983257
v -1.783708 0.963712 -3.983260
v -1.783708 5.963711 -3.983257
v -3.579052 0.963711 -2.187915
v -3.579052 5.963711 -2.187912
v -3.579052 0.963709 2.198120
v -3.579052 5.963708 2.198123
v -1.783708 0.963708 3.993465
v -1.783708 5.963708 3.993468
vt 0.000000 1.000000
vt 0.000000 0.614695
vt 0.438603 0.614695
vt 0.438603 1.000000
vt 0.500000 0.399283
vt 1.000000 0.399283
vt 1.000000 0.537634
vt 0.500000 0.537634
vt 1.000000 0.798565
vt 0.500000 0.798565
vt 0.500000 0.000000
vt 1.000000 0.000000
vt 1.000000 0.138351
vt 0.500000 0.138351
vt 1.000000 0.399283
vt 0.500000 0.399283
vt 0.000000 0.000000
vt 0.500000 0.000000
vt 0.500000 0.138351
vt 0.000000 0.138351
vt 0.500000 0.476344
vt 0.000000 0.476344
vt 0.500000 0.614695
vt 0.000000 0.614695
vn 1.0000 -0.0000 0.0000
vn 0.7071 -0.0000 0.7071
vn 0.0000 -0.0000 1.0000
vn 0.7071 0.0000 -0.7071
vn 0.0000 0.0000 -1.0000
vn -0.7071 0.0000 -0.7071
vn -1.0000 -0.0000 0.0000
vn -0.7071 -0.0000 0.7071
s 1
f 1/1/1 2/2/1 3/3/1 4/4/1
f 2/5/2 1/6/2 5/7/2 6/8/2
f 6/8/3 5/7/3 7/9/3 8/10/3
f 4/11/4 3/12/4 9/13/4 10/14/4
f 10/14/5 9/13/5 11/15/5 12/16/5
f 12/17/6 11/18/6 13/19/6 14/20/6
f 14/20/7 13/19/7 15/21/7 16/22/7
f 16/22/8 15/21/8 17/23/8 18/24/8
